<svg xmlns="http://www.w3.org/2000/svg" xmlns:xlink="http://www.w3.org/1999/xlink" width="500" zoomAndPan="magnify" viewBox="0 0 375 374.999991" height="500" preserveAspectRatio="xMidYMid meet" version="1.0"><defs><g/></defs><rect x="-37.5" width="450" fill="#ffffff" y="-37.499999" height="449.999989" fill-opacity="1"/><rect x="-37.5" width="450" fill="#ffffff" y="-37.499999" height="449.999989" fill-opacity="1"/><rect x="-37.5" width="450" fill="#ffffff" y="-37.499999" height="449.999989" fill-opacity="1"/><g fill="#1a4e37" fill-opacity="1"><g transform="translate(87.046003, 176.650116)"><g><path d="M 1.652344 -33.363281 L 1.652344 0 L 5.199219 0 L 5.199219 -33.035156 C 10.300781 -33.035156 14.082031 -29.207031 16.917969 -23.820312 C 20.414062 -16.964844 22.164062 -7.515625 22.164062 0 L 25.710938 0 L 25.710938 -33.363281 L 22.164062 -33.363281 L 22.164062 -6.238281 C 21.457031 -12.335938 19.894531 -18.855469 17.109375 -24.007812 C 14.367188 -29.488281 10.351562 -33.363281 5.199219 -33.363281 Z M 1.652344 -33.363281 "/></g></g></g><g fill="#1a4e37" fill-opacity="1"><g transform="translate(120.310887, 176.650116)"><g><path d="M 14.128906 -32.890625 C 5.199219 -30.480469 -0.140625 -21.3125 2.222656 -12.335938 C 4.679688 -3.261719 13.800781 2.078125 22.683594 -0.425781 C 31.664062 -2.789062 37.003906 -12.097656 34.5 -20.9375 C 32.183594 -29.914062 22.96875 -35.398438 14.128906 -32.890625 Z M 14.179688 -32.515625 C 22.304688 -34.78125 28.921875 -27.269531 30.859375 -19.992188 C 32.703125 -12.808594 30.671875 -2.835938 22.589844 -0.757812 C 14.601562 1.371094 7.941406 -6.191406 6.050781 -13.328125 C 4.113281 -20.558594 6.144531 -30.433594 14.179688 -32.515625 Z M 14.179688 -32.515625 "/></g></g></g><g fill="#1a4e37" fill-opacity="1"><g transform="translate(163.025621, 176.650116)"><g><path d="M 15.027344 -18.429688 C 19.140625 -18.949219 22.636719 -21.3125 22.636719 -25.945312 C 22.636719 -31.332031 16.917969 -33.414062 9.972656 -33.414062 L 1.652344 -33.414062 L 1.652344 0 L 5.386719 0 L 5.386719 -26.511719 C 5.8125 -24.527344 6.378906 -23.015625 7.230469 -21.644531 C 8.648438 -19.421875 10.679688 -18.242188 12.996094 -18.242188 C 23.675781 -18.242188 12.996094 0 30.199219 0 L 30.199219 -0.378906 C 27.03125 -0.378906 25.285156 -3.96875 23.488281 -8.082031 C 21.597656 -12.523438 19.945312 -17.296875 15.027344 -18.429688 Z M 18.902344 -25.945312 C 18.902344 -20.984375 16.351562 -18.761719 13.328125 -18.574219 L 12.996094 -18.574219 C 10.824219 -18.574219 8.882812 -19.945312 7.5625 -21.882812 C 6.238281 -23.960938 5.386719 -26.652344 5.386719 -30.105469 L 5.386719 -33.035156 L 9.972656 -33.035156 C 14.554688 -33.035156 18.902344 -31.332031 18.902344 -25.945312 Z M 18.902344 -25.945312 "/></g></g></g><g fill="#1a4e37" fill-opacity="1"><g transform="translate(200.779176, 176.650116)"><g><path d="M 30.292969 -33.363281 C 20.273438 -33.363281 17.25 -19.328125 16.351562 -8.460938 L 5.578125 -33.363281 L 1.652344 -33.363281 L 1.652344 0 L 1.9375 0 L 1.9375 -32.515625 L 3.261719 -29.394531 L 16.019531 0 L 16.492188 0 C 16.492188 -8.601562 17.25 -28.261719 26.703125 -32.230469 L 26.703125 0 L 30.292969 0 Z M 30.292969 -33.363281 "/></g></g></g><g fill="#1a4e37" fill-opacity="1"><g transform="translate(238.627237, 176.650116)"><g><path d="M 24.621094 0 L 28.59375 0 L 14.460938 -33.363281 L 14.128906 -33.363281 C 10.539062 -27.269531 6.285156 -18.667969 3.78125 -11.910156 C 2.648438 -8.882812 1.984375 -6.238281 1.75 -4.160156 C 1.511719 -2.03125 2.03125 -0.613281 3.308594 -0.046875 C 3.640625 0.234375 3.78125 0.234375 4.0625 0.285156 C 6.191406 0.378906 6.996094 -1.371094 7.890625 -3.734375 C 9.40625 -7.183594 11.246094 -12.050781 19.28125 -12.808594 Z M 19.140625 -13.136719 C 10.964844 -12.335938 9.074219 -7.371094 7.515625 -3.828125 C 6.757812 -1.652344 6 0 4.113281 -0.140625 C 3.875 -0.285156 3.734375 -0.285156 3.449219 -0.378906 C 2.316406 -0.757812 1.984375 -2.222656 2.078125 -4.160156 C 2.316406 -6.191406 2.976562 -8.789062 4.113281 -11.816406 C 6.097656 -17.296875 9.308594 -23.722656 12.191406 -29.300781 Z M 19.140625 -13.136719 "/></g></g></g><g fill="#1a4e37" fill-opacity="1"><g transform="translate(274.764706, 176.650116)"><g/></g></g><g fill="#1a4e37" fill-opacity="1"><g transform="translate(109.843972, 223.774586)"><g><path d="M 9.324219 0.71875 C 13.714844 0.71875 17.027344 -1.800781 17.027344 -5.21875 C 17.027344 -7.921875 15.191406 -9.433594 10.90625 -10.332031 L 7.957031 -10.90625 C 5.4375 -11.449219 4.355469 -12.203125 4.355469 -13.535156 C 4.390625 -15.085938 6.085938 -16.488281 8.386719 -16.488281 C 10.980469 -16.488281 12.886719 -15.085938 13.140625 -13.175781 L 15.769531 -13.894531 C 15.085938 -16.847656 12.238281 -18.898438 8.425781 -18.898438 C 4.535156 -18.898438 1.726562 -16.558594 1.691406 -13.390625 C 1.691406 -10.726562 3.3125 -9.214844 7.09375 -8.425781 L 9.972656 -7.847656 C 13.03125 -7.234375 14.363281 -6.371094 14.363281 -4.96875 C 14.363281 -3.097656 12.167969 -1.765625 9.324219 -1.765625 C 6.085938 -1.765625 3.636719 -3.527344 3.421875 -6.046875 L 0.71875 -5.507812 C 1.042969 -1.621094 4.789062 0.71875 9.324219 0.71875 Z M 9.324219 0.71875 "/></g></g></g><g fill="#1a4e37" fill-opacity="1"><g transform="translate(137.024006, 223.774586)"><g><path d="M 7.738281 0.71875 C 10.980469 0.71875 13.5 -0.71875 14.796875 -3.023438 L 14.832031 -3.023438 L 14.867188 -2.195312 C 14.976562 -0.539062 16.09375 0.71875 17.855469 0.71875 C 19.261719 0.71875 20.773438 -0.0351562 21.527344 -1.152344 L 20.050781 -2.878906 C 19.65625 -2.230469 19.078125 -1.800781 18.574219 -1.800781 C 18 -1.800781 17.605469 -2.304688 17.605469 -3.023438 L 17.605469 -12.238281 C 17.605469 -16.308594 14.328125 -18.898438 9.683594 -18.898438 C 4.96875 -18.898438 1.441406 -16.09375 1.117188 -13.105469 L 3.601562 -12.058594 C 3.742188 -14.21875 6.15625 -16.414062 9.574219 -16.414062 C 12.742188 -16.414062 14.902344 -14.941406 14.902344 -12.671875 C 14.902344 -11.878906 14.328125 -11.375 13.429688 -11.269531 L 8.929688 -10.726562 C 3.023438 -10.007812 0.71875 -7.667969 0.71875 -4.753906 C 0.71875 -1.511719 3.601562 0.71875 7.738281 0.71875 Z M 8.207031 -1.765625 C 5.4375 -1.765625 3.457031 -2.953125 3.457031 -4.789062 C 3.457031 -6.445312 4.824219 -7.847656 9.214844 -8.386719 L 14.832031 -9.070312 L 14.832031 -7.777344 C 14.832031 -4.246094 12.023438 -1.765625 8.207031 -1.765625 Z M 8.207031 -1.765625 "/></g></g></g><g fill="#1a4e37" fill-opacity="1"><g transform="translate(167.984045, 223.774586)"><g><path d="M 9.828125 -21.5625 L 14.039062 -26.746094 L 12.925781 -27.613281 L 8.785156 -22.429688 Z M 8.351562 0.71875 C 11.519531 0.71875 13.789062 -0.503906 15.335938 -2.699219 L 15.371094 -2.699219 L 15.625 0 L 18.109375 0 L 18.109375 -18.179688 L 15.371094 -18.179688 L 15.371094 -7.921875 C 15.371094 -4.210938 12.742188 -1.65625 9.109375 -1.65625 C 6.226562 -1.65625 4.390625 -3.636719 4.390625 -6.730469 L 4.390625 -18.179688 L 1.621094 -18.179688 L 1.621094 -6.445312 C 1.621094 -1.945312 4.175781 0.71875 8.351562 0.71875 Z M 8.351562 0.71875 "/></g></g></g><g fill="#1a4e37" fill-opacity="1"><g transform="translate(197.32408, 223.774586)"><g><path d="M 10.332031 0.71875 C 13.355469 0.71875 15.875 -0.71875 17.425781 -3.132812 L 17.460938 -3.132812 L 17.710938 0 L 20.125 0 L 20.125 -26.460938 L 17.351562 -26.460938 L 17.351562 -15.121094 L 17.316406 -15.121094 C 15.769531 -17.496094 13.320312 -18.898438 10.296875 -18.898438 C 4.96875 -18.898438 1.078125 -14.761719 1.078125 -9.070312 C 1.078125 -3.421875 5.003906 0.71875 10.332031 0.71875 Z M 10.65625 -1.765625 C 6.730469 -1.765625 3.816406 -4.894531 3.816406 -9.070312 C 3.816406 -13.210938 6.695312 -16.378906 10.65625 -16.378906 C 14.578125 -16.378906 17.460938 -13.210938 17.460938 -9.070312 C 17.460938 -4.96875 14.578125 -1.765625 10.65625 -1.765625 Z M 10.65625 -1.765625 "/></g></g></g><g fill="#1a4e37" fill-opacity="1"><g transform="translate(228.680123, 223.774586)"><g><path d="M 11.125 0.71875 C 15.191406 0.71875 18.613281 -1.332031 19.800781 -4.246094 L 17.425781 -5.21875 C 16.414062 -3.238281 14.003906 -1.765625 11.160156 -1.765625 C 7.234375 -1.765625 4.320312 -4.390625 3.925781 -8.171875 L 19.222656 -8.171875 C 19.261719 -8.53125 19.261719 -8.929688 19.261719 -9.253906 C 19.1875 -14.867188 15.695312 -18.898438 10.367188 -18.898438 C 4.96875 -18.898438 1.078125 -14.867188 1.078125 -9.289062 C 1.078125 -3.492188 5.328125 0.71875 11.125 0.71875 Z M 3.960938 -10.585938 C 4.464844 -14.039062 6.949219 -16.378906 10.332031 -16.378906 C 13.644531 -16.378906 15.984375 -14.292969 16.34375 -10.585938 Z M 3.960938 -10.585938 "/></g></g></g></svg>