<svg xmlns="http://www.w3.org/2000/svg" xmlns:xlink="http://www.w3.org/1999/xlink" width="500" zoomAndPan="magnify" viewBox="0 0 375 374.999991" height="500" preserveAspectRatio="xMidYMid meet" version="1.0"><defs><clipPath id="81b850478c"><path d="M 112.5 112.5 L 262.5 112.5 L 262.5 262.5 L 112.5 262.5 Z M 112.5 112.5 " clip-rule="nonzero"/></clipPath></defs><g clip-path="url(#81b850478c)"><path fill="#ffffff" d="M 244.578125 112.5 L 130.421875 112.5 C 129.835938 112.5 129.25 112.53125 128.664062 112.589844 C 128.082031 112.648438 127.5 112.734375 126.925781 112.851562 C 126.351562 112.964844 125.78125 113.109375 125.21875 113.28125 C 124.660156 113.449219 124.105469 113.648438 123.566406 113.875 C 123.023438 114.097656 122.492188 114.351562 121.976562 114.628906 C 121.457031 114.90625 120.957031 115.207031 120.46875 115.535156 C 119.980469 115.859375 119.507812 116.210938 119.054688 116.582031 C 118.601562 116.953125 118.167969 117.347656 117.753906 117.765625 C 117.339844 118.179688 116.945312 118.613281 116.570312 119.066406 C 116.199219 119.519531 115.851562 119.992188 115.523438 120.480469 C 115.199219 120.96875 114.898438 121.472656 114.621094 121.988281 C 114.34375 122.507812 114.09375 123.035156 113.867188 123.578125 C 113.644531 124.121094 113.445312 124.671875 113.273438 125.234375 C 113.105469 125.796875 112.960938 126.367188 112.847656 126.941406 C 112.730469 127.515625 112.644531 128.097656 112.585938 128.679688 C 112.53125 129.265625 112.5 129.851562 112.5 130.4375 L 112.5 244.5 C 112.5 245.089844 112.527344 245.675781 112.582031 246.261719 C 112.636719 246.847656 112.722656 247.429688 112.835938 248.003906 C 112.949219 248.582031 113.089844 249.152344 113.261719 249.714844 C 113.429688 250.28125 113.625 250.832031 113.851562 251.378906 C 114.074219 251.921875 114.324219 252.453125 114.601562 252.972656 C 114.875 253.492188 115.175781 253.996094 115.503906 254.488281 C 115.828125 254.976562 116.175781 255.449219 116.550781 255.90625 C 116.921875 256.359375 117.316406 256.796875 117.730469 257.214844 C 118.144531 257.632812 118.582031 258.027344 119.035156 258.402344 C 119.488281 258.773438 119.960938 259.125 120.449219 259.453125 C 120.9375 259.78125 121.441406 260.085938 121.957031 260.363281 C 122.476562 260.640625 123.007812 260.894531 123.550781 261.121094 C 124.09375 261.347656 124.644531 261.546875 125.207031 261.71875 C 125.773438 261.890625 126.339844 262.03125 126.917969 262.148438 C 127.496094 262.265625 128.074219 262.351562 128.660156 262.410156 C 129.246094 262.46875 129.832031 262.5 130.421875 262.5 L 244.578125 262.5 C 245.164062 262.5 245.75 262.46875 246.335938 262.410156 C 246.917969 262.351562 247.5 262.265625 248.074219 262.148438 C 248.648438 262.035156 249.21875 261.890625 249.78125 261.71875 C 250.339844 261.550781 250.894531 261.351562 251.433594 261.125 C 251.976562 260.902344 252.507812 260.648438 253.023438 260.371094 C 253.542969 260.09375 254.042969 259.792969 254.53125 259.464844 C 255.019531 259.140625 255.492188 258.789062 255.945312 258.417969 C 256.398438 258.046875 256.832031 257.652344 257.246094 257.234375 C 257.660156 256.820312 258.054688 256.386719 258.429688 255.933594 C 258.800781 255.480469 259.148438 255.007812 259.476562 254.519531 C 259.800781 254.03125 260.101562 253.527344 260.378906 253.011719 C 260.65625 252.492188 260.90625 251.964844 261.132812 251.421875 C 261.355469 250.878906 261.554688 250.328125 261.726562 249.765625 C 261.894531 249.203125 262.039062 248.632812 262.152344 248.058594 C 262.269531 247.484375 262.355469 246.902344 262.414062 246.320312 C 262.46875 245.734375 262.5 245.148438 262.5 244.5625 L 262.5 130.5 C 262.5 129.910156 262.472656 129.324219 262.417969 128.738281 C 262.363281 128.152344 262.277344 127.570312 262.164062 126.996094 C 262.050781 126.417969 261.910156 125.847656 261.738281 125.285156 C 261.570312 124.71875 261.375 124.167969 261.148438 123.621094 C 260.925781 123.078125 260.675781 122.546875 260.398438 122.027344 C 260.125 121.507812 259.824219 121.003906 259.496094 120.511719 C 259.171875 120.023438 258.824219 119.550781 258.449219 119.09375 C 258.078125 118.640625 257.683594 118.203125 257.269531 117.785156 C 256.855469 117.367188 256.417969 116.972656 255.964844 116.597656 C 255.511719 116.226562 255.039062 115.875 254.550781 115.546875 C 254.0625 115.21875 253.558594 114.914062 253.042969 114.636719 C 252.523438 114.359375 251.992188 114.105469 251.449219 113.878906 C 250.90625 113.652344 250.355469 113.453125 249.792969 113.28125 C 249.226562 113.109375 248.660156 112.96875 248.082031 112.851562 C 247.503906 112.734375 246.925781 112.648438 246.339844 112.589844 C 245.753906 112.53125 245.167969 112.5 244.578125 112.5 Z M 259.375 244.5625 C 259.375 245.535156 259.28125 246.496094 259.089844 247.449219 C 258.902344 248.402344 258.621094 249.328125 258.25 250.226562 C 257.878906 251.125 257.421875 251.980469 256.882812 252.785156 C 256.34375 253.59375 255.730469 254.34375 255.042969 255.03125 C 254.355469 255.71875 253.609375 256.332031 252.800781 256.875 C 251.992188 257.414062 251.140625 257.871094 250.242188 258.242188 C 249.34375 258.617188 248.417969 258.898438 247.464844 259.085938 C 246.511719 259.277344 245.550781 259.375 244.578125 259.375 L 130.421875 259.375 C 129.449219 259.375 128.488281 259.277344 127.535156 259.085938 C 126.582031 258.898438 125.65625 258.617188 124.757812 258.242188 C 123.859375 257.871094 123.007812 257.414062 122.199219 256.875 C 121.390625 256.332031 120.644531 255.71875 119.957031 255.03125 C 119.269531 254.34375 118.65625 253.59375 118.117188 252.785156 C 117.578125 251.980469 117.121094 251.125 116.75 250.226562 C 116.378906 249.328125 116.097656 248.402344 115.910156 247.449219 C 115.71875 246.496094 115.625 245.535156 115.625 244.5625 L 115.625 130.5 C 115.621094 129.527344 115.710938 128.558594 115.898438 127.601562 C 116.085938 126.648438 116.363281 125.71875 116.734375 124.816406 C 117.101562 123.914062 117.558594 123.058594 118.097656 122.246094 C 118.636719 121.433594 119.25 120.683594 119.9375 119.992188 C 120.625 119.300781 121.371094 118.683594 122.179688 118.140625 C 122.988281 117.597656 123.84375 117.136719 124.742188 116.761719 C 125.644531 116.386719 126.570312 116.105469 127.527344 115.914062 C 128.480469 115.722656 129.449219 115.625 130.421875 115.625 L 244.578125 115.625 C 245.550781 115.625 246.511719 115.722656 247.464844 115.914062 C 248.417969 116.101562 249.34375 116.382812 250.242188 116.757812 C 251.140625 117.128906 251.992188 117.585938 252.800781 118.125 C 253.609375 118.667969 254.355469 119.28125 255.042969 119.96875 C 255.730469 120.65625 256.34375 121.40625 256.882812 122.214844 C 257.421875 123.019531 257.878906 123.875 258.25 124.773438 C 258.621094 125.671875 258.902344 126.597656 259.089844 127.550781 C 259.28125 128.503906 259.375 129.464844 259.375 130.4375 Z M 242.625 130.84375 L 132.390625 130.84375 C 132.183594 130.84375 131.984375 130.882812 131.792969 130.960938 C 131.601562 131.042969 131.433594 131.15625 131.285156 131.300781 C 131.140625 131.449219 131.027344 131.617188 130.945312 131.808594 C 130.867188 132 130.828125 132.199219 130.828125 132.40625 L 130.828125 242.609375 C 130.828125 242.816406 130.867188 243.015625 130.945312 243.207031 C 131.027344 243.398438 131.140625 243.566406 131.285156 243.714844 C 131.433594 243.859375 131.601562 243.972656 131.792969 244.054688 C 131.984375 244.132812 132.183594 244.171875 132.390625 244.171875 L 242.625 244.171875 C 242.832031 244.171875 243.03125 244.132812 243.222656 244.054688 C 243.414062 243.972656 243.582031 243.859375 243.730469 243.714844 C 243.875 243.566406 243.988281 243.398438 244.070312 243.207031 C 244.148438 243.015625 244.1875 242.816406 244.1875 242.609375 L 244.1875 132.40625 C 244.1875 132.199219 244.148438 132 244.070312 131.808594 C 243.988281 131.617188 243.875 131.449219 243.730469 131.300781 C 243.582031 131.15625 243.414062 131.042969 243.222656 130.960938 C 243.03125 130.882812 242.832031 130.84375 242.625 130.84375 Z M 241.0625 241.046875 L 133.953125 241.046875 L 133.953125 133.96875 L 241.0625 133.96875 Z M 157.65625 169.171875 C 164.21875 169.171875 168.59375 165.078125 168.671875 158.984375 C 168.707031 157.660156 168.484375 156.378906 168 155.144531 C 167.511719 153.910156 166.804688 152.820312 165.875 151.875 C 164.757812 150.824219 163.480469 150.027344 162.046875 149.484375 C 160.609375 148.945312 159.128906 148.699219 157.59375 148.75 C 156.117188 148.71875 154.6875 148.976562 153.3125 149.519531 C 151.9375 150.058594 150.71875 150.84375 149.65625 151.875 C 148.742188 152.816406 148.046875 153.894531 147.566406 155.113281 C 147.082031 156.332031 146.851562 157.597656 146.875 158.90625 C 146.886719 159.597656 146.96875 160.277344 147.117188 160.953125 C 147.265625 161.628906 147.480469 162.28125 147.761719 162.910156 C 148.039062 163.542969 148.378906 164.140625 148.777344 164.707031 C 149.175781 165.269531 149.625 165.789062 150.128906 166.261719 C 150.628906 166.738281 151.171875 167.15625 151.757812 167.523438 C 152.34375 167.890625 152.960938 168.191406 153.605469 168.4375 C 154.253906 168.679688 154.917969 168.855469 155.597656 168.96875 C 156.28125 169.078125 156.964844 169.121094 157.65625 169.09375 Z M 151.921875 154.0625 C 152.6875 153.320312 153.5625 152.75 154.554688 152.359375 C 155.546875 151.964844 156.574219 151.777344 157.640625 151.796875 C 158.757812 151.746094 159.84375 151.914062 160.898438 152.296875 C 161.949219 152.675781 162.890625 153.246094 163.71875 154 C 164.355469 154.652344 164.839844 155.40625 165.171875 156.257812 C 165.503906 157.109375 165.652344 157.992188 165.625 158.90625 C 165.625 163.265625 162.5 165.96875 157.734375 165.96875 C 157.246094 166.003906 156.757812 165.988281 156.273438 165.921875 C 155.785156 165.855469 155.3125 165.742188 154.847656 165.582031 C 154.386719 165.421875 153.945312 165.214844 153.523438 164.960938 C 153.101562 164.710938 152.710938 164.417969 152.347656 164.089844 C 151.988281 163.757812 151.664062 163.394531 151.375 162.996094 C 151.085938 162.597656 150.84375 162.175781 150.640625 161.730469 C 150.4375 161.285156 150.285156 160.820312 150.175781 160.34375 C 150.066406 159.863281 150.007812 159.378906 150 158.890625 C 149.984375 157.988281 150.144531 157.121094 150.480469 156.285156 C 150.8125 155.449219 151.292969 154.707031 151.921875 154.0625 Z M 166.4375 174.375 C 165.941406 173.933594 165.375 173.609375 164.742188 173.402344 C 164.109375 173.195312 163.460938 173.125 162.796875 173.1875 L 162.3125 173.1875 C 159.515625 173.1875 156.640625 173.3125 153.84375 173.1875 C 153.039062 173.0625 152.246094 173.109375 151.460938 173.324219 C 150.679688 173.539062 149.972656 173.90625 149.34375 174.421875 C 148.804688 175.042969 148.414062 175.746094 148.167969 176.53125 C 147.925781 177.316406 147.847656 178.121094 147.9375 178.9375 C 148.0625 183.796875 148.046875 188.765625 148.015625 193.5625 C 148.015625 195.5625 148.015625 197.578125 148.015625 199.578125 C 148 199.707031 148 199.839844 148.015625 199.96875 L 148.015625 205.671875 C 148.015625 210.890625 148.015625 216.109375 148.015625 221.296875 C 147.945312 222 148.019531 222.6875 148.242188 223.359375 C 148.460938 224.03125 148.808594 224.628906 149.28125 225.15625 C 149.753906 225.578125 150.289062 225.894531 150.886719 226.101562 C 151.488281 226.304688 152.101562 226.386719 152.734375 226.34375 L 153.125 226.34375 C 156.671875 226.234375 160.1875 226.34375 162.84375 226.34375 C 163.503906 226.410156 164.152344 226.34375 164.78125 226.136719 C 165.414062 225.929688 165.976562 225.601562 166.46875 225.15625 C 166.917969 224.664062 167.253906 224.105469 167.46875 223.472656 C 167.6875 222.84375 167.769531 222.195312 167.71875 221.53125 C 167.71875 206.484375 167.71875 191.84375 167.71875 178 C 167.777344 177.328125 167.695312 176.671875 167.472656 176.035156 C 167.25 175.394531 166.90625 174.832031 166.4375 174.34375 Z M 164.515625 221.5 C 164.574219 221.996094 164.472656 222.453125 164.203125 222.875 C 163.78125 223.144531 163.324219 223.242188 162.828125 223.171875 C 160.125 223.171875 156.578125 223.0625 152.9375 223.171875 C 152.414062 223.242188 151.925781 223.144531 151.46875 222.875 C 151.34375 222.75 151.125 222.375 151.140625 221.3125 C 151.140625 216.078125 151.140625 210.84375 151.140625 205.59375 L 151.140625 199.515625 C 151.15625 199.386719 151.15625 199.253906 151.140625 199.125 C 151.140625 197.25 151.140625 195.390625 151.140625 193.515625 C 151.140625 188.6875 151.140625 183.703125 151.0625 178.78125 C 150.941406 177.976562 151.105469 177.238281 151.5625 176.5625 C 152.230469 176.171875 152.941406 176.046875 153.703125 176.1875 C 156.625 176.375 159.5625 176.3125 162.421875 176.1875 L 162.90625 176.1875 C 163.402344 176.117188 163.867188 176.210938 164.296875 176.46875 C 164.546875 176.894531 164.644531 177.351562 164.59375 177.84375 C 164.5 191.78125 164.484375 206.4375 164.515625 221.5 Z M 174.203125 204.6875 C 174.203125 207.625 174.203125 210.578125 174.203125 213.53125 C 174.203125 219.578125 174.203125 222.609375 176.078125 224.46875 C 177.953125 226.328125 180.984375 226.3125 187.015625 226.265625 C 193.046875 226.21875 193.75 225.53125 193.75 219.421875 C 193.75 217.03125 193.75 214.640625 193.75 212.234375 C 193.75 206.859375 193.75 201.296875 193.828125 195.84375 C 193.820312 195.339844 193.859375 194.835938 193.953125 194.339844 C 194.042969 193.84375 194.179688 193.359375 194.367188 192.886719 C 194.554688 192.417969 194.78125 191.972656 195.058594 191.546875 C 195.332031 191.121094 195.644531 190.726562 195.996094 190.367188 C 196.347656 190.003906 196.734375 189.675781 197.148438 189.390625 C 197.566406 189.101562 198.003906 188.859375 198.46875 188.660156 C 198.933594 188.460938 199.414062 188.304688 199.90625 188.199219 C 200.402344 188.09375 200.902344 188.039062 201.40625 188.03125 C 205.390625 188.03125 207.984375 190.828125 208.34375 195.515625 C 208.46875 197 208.46875 198.546875 208.46875 200.03125 L 208.46875 205.546875 C 208.46875 210.546875 208.46875 215.703125 208.46875 220.78125 C 208.382812 221.574219 208.460938 222.351562 208.707031 223.109375 C 208.953125 223.871094 209.339844 224.546875 209.875 225.140625 C 210.386719 225.582031 210.964844 225.910156 211.605469 226.121094 C 212.246094 226.335938 212.902344 226.421875 213.578125 226.375 L 214.203125 226.375 C 217.234375 226.203125 220.375 226.28125 223.140625 226.375 C 223.816406 226.433594 224.476562 226.363281 225.121094 226.15625 C 225.765625 225.949219 226.34375 225.628906 226.859375 225.1875 C 227.320312 224.699219 227.664062 224.136719 227.882812 223.503906 C 228.105469 222.867188 228.183594 222.214844 228.125 221.546875 C 228.125 218.25 228.125 214.953125 228.125 211.65625 C 228.125 205.234375 228.125 198.609375 227.90625 192.078125 C 227.390625 180.34375 219.765625 172.40625 208.515625 171.875 C 207.15625 171.800781 205.800781 171.871094 204.457031 172.082031 C 203.113281 172.296875 201.804688 172.644531 200.53125 173.132812 C 199.257812 173.621094 198.050781 174.234375 196.910156 174.976562 C 195.765625 175.714844 194.714844 176.570312 193.75 177.53125 C 192.703125 173.5625 191.359375 173.1875 185.9375 173.171875 L 183.875 173.171875 C 182.644531 173.242188 181.417969 173.242188 180.1875 173.171875 C 179.382812 173.023438 178.582031 173.046875 177.785156 173.242188 C 176.988281 173.4375 176.269531 173.789062 175.625 174.296875 C 175.042969 174.957031 174.617188 175.703125 174.34375 176.542969 C 174.074219 177.378906 173.980469 178.234375 174.0625 179.109375 C 174.21875 187.609375 174.203125 196.3125 174.203125 204.6875 Z M 177.75 176.5625 C 178.429688 176.191406 179.148438 176.085938 179.90625 176.25 C 181.253906 176.34375 182.605469 176.34375 183.953125 176.25 C 184.578125 176.25 185.203125 176.25 185.84375 176.25 C 187.265625 176.082031 188.664062 176.210938 190.03125 176.640625 C 190.726562 178.003906 191.140625 179.445312 191.265625 180.96875 C 191.324219 181.261719 191.453125 181.515625 191.65625 181.730469 C 191.859375 181.949219 192.101562 182.097656 192.390625 182.175781 C 192.675781 182.253906 192.960938 182.25 193.246094 182.164062 C 193.53125 182.078125 193.773438 181.925781 193.96875 181.703125 C 198.234375 176.8125 202.796875 174.671875 208.359375 174.9375 C 218.03125 175.40625 224.34375 182.015625 224.8125 192.125 C 225.109375 198.578125 225.0625 205.171875 225.03125 211.546875 C 225.03125 214.84375 225.03125 218.15625 225.03125 221.46875 C 225.085938 221.941406 224.984375 222.378906 224.734375 222.78125 C 224.285156 223.050781 223.800781 223.148438 223.28125 223.078125 C 220.453125 223.078125 217.25 222.921875 214.078125 223.078125 C 213.378906 223.199219 212.722656 223.078125 212.109375 222.71875 C 211.703125 222.085938 211.550781 221.398438 211.65625 220.65625 C 211.75 215.5625 211.65625 210.375 211.65625 205.375 L 211.65625 200 C 211.65625 198.4375 211.65625 196.875 211.53125 195.234375 C 211.03125 188.984375 207.09375 184.875 201.46875 184.875 L 201.375 184.875 C 200.667969 184.890625 199.96875 184.976562 199.277344 185.128906 C 198.589844 185.28125 197.917969 185.5 197.269531 185.78125 C 196.621094 186.066406 196.007812 186.40625 195.425781 186.808594 C 194.84375 187.210938 194.304688 187.664062 193.8125 188.171875 C 193.316406 188.675781 192.878906 189.226562 192.492188 189.816406 C 192.101562 190.410156 191.777344 191.03125 191.507812 191.6875 C 191.242188 192.34375 191.042969 193.015625 190.90625 193.710938 C 190.769531 194.40625 190.703125 195.105469 190.703125 195.8125 C 190.625 201.28125 190.625 206.859375 190.625 212.25 C 190.625 214.640625 190.625 217.03125 190.625 219.421875 C 190.699219 220.597656 190.628906 221.761719 190.421875 222.921875 C 189.277344 223.152344 188.121094 223.230469 186.953125 223.15625 C 182.109375 223.15625 179.140625 223.15625 178.234375 222.265625 C 177.328125 221.375 177.28125 218.40625 177.28125 213.546875 C 177.28125 210.609375 177.28125 207.671875 177.28125 204.734375 C 177.28125 196.296875 177.28125 187.546875 177.171875 179.03125 C 177.203125 177.40625 177.5 176.796875 177.75 176.5625 Z M 177.75 176.5625 " fill-opacity="1" fill-rule="nonzero"/></g></svg>