<svg xmlns="http://www.w3.org/2000/svg" xmlns:xlink="http://www.w3.org/1999/xlink" width="500" zoomAndPan="magnify" viewBox="0 0 375 374.999991" height="500" preserveAspectRatio="xMidYMid meet" version="1.0"><defs><clipPath id="57982017bc"><path d="M 117 121 L 257 121 L 257 259.875 L 117 259.875 Z M 117 121 " clip-rule="nonzero"/></clipPath></defs><g clip-path="url(#57982017bc)"><path fill="#ffffff" d="M 187.722656 259.828125 C 184.195312 259.835938 180.683594 259.574219 177.195312 259.039062 C 173.707031 258.503906 170.277344 257.707031 166.914062 256.640625 C 163.546875 255.578125 160.285156 254.261719 157.121094 252.691406 C 153.960938 251.121094 150.9375 249.320312 148.054688 247.28125 L 117.386719 256.484375 L 129.101562 227.21875 C 128.433594 226.144531 127.796875 225.054688 127.191406 223.945312 C 126.585938 222.835938 126.007812 221.714844 125.464844 220.574219 C 124.917969 219.433594 124.40625 218.28125 123.921875 217.113281 C 123.441406 215.945312 122.992188 214.761719 122.574219 213.570312 C 122.15625 212.378906 121.773438 211.175781 121.421875 209.960938 C 121.070312 208.746094 120.753906 207.523438 120.46875 206.292969 C 120.1875 205.0625 119.9375 203.824219 119.71875 202.578125 C 119.503906 201.335938 119.324219 200.085938 119.175781 198.828125 C 119.027344 197.574219 118.914062 196.316406 118.835938 195.054688 C 118.757812 193.792969 118.714844 192.53125 118.707031 191.269531 C 118.695312 190.003906 118.722656 188.742188 118.78125 187.480469 C 118.84375 186.21875 118.9375 184.957031 119.066406 183.703125 C 119.195312 182.445312 119.359375 181.191406 119.558594 179.945312 C 119.757812 178.695312 119.988281 177.457031 120.257812 176.21875 C 120.523438 174.984375 120.824219 173.757812 121.15625 172.539062 C 121.492188 171.320312 121.855469 170.113281 122.257812 168.914062 C 122.65625 167.714844 123.089844 166.527344 123.554688 165.355469 C 124.019531 164.179688 124.519531 163.019531 125.046875 161.871094 C 125.574219 160.722656 126.136719 159.589844 126.726562 158.472656 C 127.316406 157.359375 127.9375 156.257812 128.589844 155.175781 C 129.242188 154.09375 129.921875 153.027344 130.632812 151.984375 C 131.34375 150.9375 132.082031 149.914062 132.847656 148.910156 C 133.613281 147.902344 134.40625 146.921875 135.226562 145.960938 C 136.046875 145 136.894531 144.058594 137.765625 143.144531 C 138.636719 142.230469 139.53125 141.339844 140.453125 140.476562 C 141.371094 139.609375 142.316406 138.769531 143.28125 137.957031 C 144.25 137.140625 145.238281 136.355469 146.246094 135.597656 C 147.257812 134.835938 148.289062 134.105469 149.335938 133.402344 C 150.386719 132.699219 151.457031 132.027344 152.542969 131.382812 C 153.628906 130.738281 154.734375 130.125 155.855469 129.539062 C 156.972656 128.957031 158.109375 128.402344 159.261719 127.882812 C 160.410156 127.359375 161.578125 126.871094 162.753906 126.414062 C 163.933594 125.957031 165.121094 125.53125 166.324219 125.140625 C 167.523438 124.746094 168.734375 124.386719 169.957031 124.0625 C 171.175781 123.738281 172.40625 123.445312 173.640625 123.1875 C 174.878906 122.929688 176.121094 122.703125 177.371094 122.515625 C 178.621094 122.324219 179.875 122.167969 181.132812 122.046875 C 182.390625 121.925781 183.648438 121.839844 184.910156 121.789062 C 186.175781 121.734375 187.4375 121.71875 188.699219 121.734375 C 189.964844 121.753906 191.226562 121.804688 192.488281 121.890625 C 193.746094 121.976562 195.003906 122.097656 196.257812 122.253906 C 197.511719 122.410156 198.761719 122.601562 200.003906 122.824219 C 201.246094 123.046875 202.484375 123.308594 203.714844 123.597656 C 204.941406 123.890625 206.164062 124.214844 207.375 124.574219 C 208.585938 124.933594 209.785156 125.328125 210.976562 125.75 C 212.167969 126.175781 213.34375 126.632812 214.507812 127.125 C 215.671875 127.613281 216.824219 128.132812 217.960938 128.6875 C 219.097656 129.238281 220.214844 129.824219 221.320312 130.4375 C 222.425781 131.050781 223.511719 131.695312 224.582031 132.371094 C 225.648438 133.042969 226.699219 133.746094 227.730469 134.476562 C 228.757812 135.210938 229.769531 135.96875 230.757812 136.753906 C 231.746094 137.542969 232.710938 138.355469 233.65625 139.195312 C 234.601562 140.035156 235.519531 140.902344 236.417969 141.792969 C 237.3125 142.679688 238.183594 143.597656 239.03125 144.535156 C 239.875 145.472656 240.695312 146.433594 241.488281 147.417969 C 242.285156 148.398438 243.050781 149.40625 243.789062 150.429688 C 244.527344 151.457031 245.234375 152.5 245.917969 153.5625 C 246.597656 154.628906 247.25 155.710938 247.871094 156.8125 C 248.492188 157.910156 249.082031 159.027344 249.644531 160.160156 C 250.203125 161.292969 250.734375 162.4375 251.230469 163.601562 C 251.726562 164.761719 252.191406 165.9375 252.625 167.125 C 253.058594 168.3125 253.457031 169.507812 253.824219 170.71875 C 254.191406 171.925781 254.527344 173.144531 254.824219 174.371094 C 255.125 175.601562 255.394531 176.835938 255.625 178.078125 C 255.859375 179.320312 256.054688 180.566406 256.21875 181.820312 C 256.382812 183.070312 256.511719 184.328125 256.609375 185.585938 C 256.703125 186.847656 256.761719 188.109375 256.789062 189.371094 C 256.816406 190.636719 256.804688 191.898438 256.761719 193.160156 C 256.71875 194.425781 256.640625 195.683594 256.527344 196.945312 C 256.414062 198.203125 256.269531 199.457031 256.085938 200.707031 C 255.90625 201.957031 255.6875 203.203125 255.4375 204.441406 C 255.1875 205.679688 254.90625 206.910156 254.585938 208.132812 C 254.269531 209.355469 253.917969 210.570312 253.535156 211.773438 C 253.152344 212.976562 252.734375 214.167969 252.285156 215.347656 C 251.835938 216.53125 251.351562 217.699219 250.839844 218.851562 C 250.324219 220.007812 249.78125 221.144531 249.203125 222.269531 C 248.628906 223.394531 248.019531 224.503906 247.382812 225.59375 C 246.746094 226.683594 246.082031 227.757812 245.382812 228.8125 C 244.6875 229.867188 243.964844 230.902344 243.210938 231.917969 C 242.457031 232.929688 241.679688 233.925781 240.871094 234.898438 C 240.0625 235.867188 239.230469 236.816406 238.371094 237.746094 C 237.511719 238.671875 236.628906 239.574219 235.71875 240.449219 C 234.808594 241.328125 233.878906 242.179688 232.921875 243.007812 C 231.964844 243.832031 230.988281 244.632812 229.988281 245.40625 C 228.988281 246.179688 227.96875 246.921875 226.929688 247.640625 C 225.886719 248.355469 224.828125 249.042969 223.75 249.703125 C 222.671875 250.363281 221.578125 250.992188 220.464844 251.589844 C 219.351562 252.1875 218.222656 252.753906 217.078125 253.292969 C 215.933594 253.828125 214.777344 254.332031 213.605469 254.804688 C 212.433594 255.28125 211.25 255.71875 210.054688 256.128906 C 208.859375 256.535156 207.652344 256.910156 206.4375 257.253906 C 205.21875 257.59375 203.996094 257.902344 202.761719 258.179688 C 201.527344 258.453125 200.289062 258.691406 199.042969 258.898438 C 197.796875 259.105469 196.542969 259.277344 195.289062 259.417969 C 194.03125 259.554688 192.773438 259.65625 191.511719 259.726562 C 190.25 259.796875 188.988281 259.828125 187.722656 259.828125 Z M 148.773438 243.011719 L 149.546875 243.578125 C 152.304688 245.582031 155.199219 247.355469 158.234375 248.902344 C 161.269531 250.449219 164.410156 251.75 167.652344 252.796875 C 170.890625 253.847656 174.195312 254.636719 177.5625 255.164062 C 180.929688 255.691406 184.3125 255.953125 187.722656 255.945312 C 223.613281 255.945312 252.816406 226.742188 252.816406 190.851562 C 252.816406 154.957031 223.617188 125.757812 187.722656 125.757812 C 151.832031 125.757812 122.628906 154.957031 122.628906 190.851562 C 122.621094 197.074219 123.492188 203.175781 125.238281 209.148438 C 126.988281 215.125 129.542969 220.730469 132.90625 225.972656 L 133.449219 226.8125 L 123.988281 250.449219 Z M 148.773438 243.011719 " fill-opacity="1" fill-rule="nonzero"/></g><path fill="#ffffff" d="M 210.667969 237.0625 C 210.136719 237.0625 209.605469 237.042969 209.066406 236.996094 C 207.9375 236.90625 206.8125 236.785156 205.6875 236.636719 C 204.566406 236.492188 203.445312 236.316406 202.332031 236.113281 C 201.214844 235.910156 200.105469 235.679688 199.003906 235.421875 C 197.898438 235.164062 196.804688 234.882812 195.714844 234.570312 C 194.625 234.257812 193.542969 233.921875 192.46875 233.558594 C 191.394531 233.195312 190.332031 232.804688 189.277344 232.386719 C 188.226562 231.96875 187.183594 231.527344 186.148438 231.058594 C 185.117188 230.59375 184.097656 230.101562 183.089844 229.582031 C 182.082031 229.0625 181.085938 228.523438 180.105469 227.953125 C 179.125 227.386719 178.15625 226.796875 177.207031 226.183594 C 176.253906 225.570312 175.316406 224.933594 174.394531 224.273438 C 173.476562 223.609375 172.570312 222.929688 171.683594 222.222656 C 170.796875 221.519531 169.925781 220.792969 169.074219 220.046875 C 168.222656 219.296875 167.390625 218.53125 166.574219 217.742188 C 165.761719 216.953125 164.96875 216.144531 164.195312 215.316406 C 163.417969 214.492188 162.667969 213.644531 161.933594 212.78125 C 161.199219 211.914062 160.488281 211.035156 159.800781 210.132812 C 159.109375 209.234375 158.445312 208.320312 157.800781 207.386719 C 157.15625 206.453125 156.535156 205.507812 155.9375 204.542969 C 155.339844 203.582031 154.765625 202.605469 154.214844 201.613281 C 153.667969 200.625 153.140625 199.621094 152.640625 198.601562 C 152.140625 197.585938 151.664062 196.558594 151.214844 195.515625 C 150.765625 194.476562 150.339844 193.425781 149.941406 192.367188 C 149.546875 191.304688 149.171875 190.234375 148.828125 189.15625 C 148.480469 188.078125 148.164062 186.988281 147.871094 185.894531 C 147.578125 184.800781 147.3125 183.699219 147.074219 182.589844 C 146.835938 181.484375 146.625 180.371094 146.441406 179.25 C 146.257812 178.132812 146.105469 177.011719 145.976562 175.886719 C 145.847656 174.757812 145.746094 173.632812 145.675781 172.5 C 145.601562 171.371094 145.554688 170.238281 145.539062 169.105469 C 145.523438 167.972656 145.53125 166.839844 145.570312 165.707031 C 145.609375 164.574219 145.675781 163.441406 145.769531 162.3125 C 145.824219 161.683594 145.90625 161.058594 146.019531 160.441406 C 146.132812 159.820312 146.273438 159.207031 146.449219 158.597656 C 146.621094 157.992188 146.824219 157.394531 147.058594 156.808594 C 147.289062 156.222656 147.550781 155.648438 147.835938 155.089844 C 148.125 154.527344 148.441406 153.980469 148.785156 153.453125 C 149.125 152.921875 149.492188 152.410156 149.886719 151.917969 C 150.277344 151.421875 150.691406 150.949219 151.132812 150.496094 C 151.570312 150.042969 152.03125 149.613281 152.511719 149.203125 C 152.992188 148.796875 153.492188 148.414062 154.011719 148.054688 C 154.53125 147.695312 155.066406 147.363281 155.617188 147.058594 C 156.167969 146.75 156.734375 146.472656 157.3125 146.222656 C 157.890625 145.972656 158.480469 145.75 159.082031 145.558594 C 159.683594 145.363281 160.292969 145.203125 160.910156 145.070312 C 161.523438 144.9375 162.148438 144.832031 162.773438 144.761719 C 163.398438 144.691406 164.027344 144.648438 164.660156 144.640625 C 165.289062 144.628906 165.921875 144.652344 166.546875 144.703125 C 168.386719 144.851562 170.167969 145.257812 171.890625 145.921875 C 172.386719 146.109375 172.867188 146.320312 173.324219 146.542969 L 174.261719 147 L 178.324219 177.808594 L 177.53125 178.492188 C 175.570312 180.179688 173.359375 181.421875 170.898438 182.222656 C 172.972656 188.582031 176.269531 194.226562 180.785156 199.160156 L 180.792969 199.167969 C 184.460938 203.183594 188.710938 206.445312 193.542969 208.945312 C 194.675781 206.769531 196.164062 204.878906 198.015625 203.269531 L 198.746094 202.632812 L 227.714844 208.816406 L 228.121094 209.695312 C 229.554688 212.773438 230.128906 216.003906 229.847656 219.386719 C 229.746094 220.582031 229.539062 221.753906 229.21875 222.90625 C 228.902344 224.0625 228.476562 225.175781 227.953125 226.25 C 227.425781 227.328125 226.804688 228.34375 226.089844 229.304688 C 225.375 230.261719 224.578125 231.148438 223.699219 231.960938 C 222.816406 232.769531 221.871094 233.492188 220.855469 234.128906 C 219.839844 234.761719 218.777344 235.300781 217.660156 235.734375 C 216.546875 236.171875 215.402344 236.5 214.226562 236.726562 C 213.050781 236.949219 211.863281 237.0625 210.667969 237.0625 Z M 164.9375 148.519531 C 163.984375 148.523438 163.035156 148.613281 162.097656 148.789062 C 161.160156 148.96875 160.246094 149.230469 159.355469 149.582031 C 158.464844 149.929688 157.617188 150.355469 156.808594 150.863281 C 155.996094 151.371094 155.242188 151.949219 154.539062 152.59375 C 153.835938 153.242188 153.203125 153.949219 152.632812 154.714844 C 152.0625 155.484375 151.566406 156.296875 151.148438 157.152344 C 150.726562 158.011719 150.390625 158.902344 150.140625 159.824219 C 149.886719 160.742188 149.71875 161.679688 149.640625 162.632812 C 149.554688 163.699219 149.492188 164.765625 149.457031 165.835938 C 149.421875 166.902344 149.410156 167.972656 149.429688 169.042969 C 149.445312 170.109375 149.488281 171.179688 149.558594 172.246094 C 149.628906 173.3125 149.722656 174.378906 149.84375 175.441406 C 149.964844 176.503906 150.113281 177.5625 150.289062 178.617188 C 150.460938 179.671875 150.660156 180.722656 150.886719 181.765625 C 151.109375 182.8125 151.359375 183.851562 151.636719 184.886719 C 151.914062 185.917969 152.214844 186.945312 152.542969 187.960938 C 152.867188 188.980469 153.21875 189.988281 153.597656 190.992188 C 153.972656 191.992188 154.371094 192.984375 154.796875 193.964844 C 155.222656 194.945312 155.671875 195.917969 156.144531 196.875 C 156.617188 197.835938 157.109375 198.78125 157.628906 199.71875 C 158.148438 200.652344 158.691406 201.574219 159.253906 202.480469 C 159.820312 203.390625 160.40625 204.285156 161.011719 205.164062 C 161.621094 206.042969 162.25 206.910156 162.902344 207.757812 C 163.550781 208.605469 164.222656 209.4375 164.914062 210.253906 C 165.605469 211.070312 166.316406 211.867188 167.046875 212.648438 C 167.777344 213.429688 168.527344 214.191406 169.296875 214.9375 C 170.0625 215.679688 170.847656 216.40625 171.652344 217.109375 C 172.457031 217.816406 173.277344 218.5 174.113281 219.167969 C 174.953125 219.832031 175.804688 220.476562 176.671875 221.097656 C 177.542969 221.722656 178.425781 222.324219 179.324219 222.90625 C 180.222656 223.484375 181.136719 224.042969 182.0625 224.578125 C 182.988281 225.113281 183.925781 225.625 184.875 226.113281 C 185.828125 226.601562 186.789062 227.066406 187.761719 227.511719 C 188.738281 227.953125 189.722656 228.371094 190.714844 228.761719 C 191.710938 229.15625 192.714844 229.523438 193.726562 229.871094 C 194.738281 230.214844 195.757812 230.53125 196.785156 230.828125 C 197.816406 231.121094 198.847656 231.390625 199.890625 231.632812 C 200.933594 231.875 201.980469 232.09375 203.03125 232.285156 C 204.082031 232.476562 205.136719 232.644531 206.199219 232.785156 C 207.257812 232.925781 208.320312 233.039062 209.386719 233.125 C 209.980469 233.175781 210.574219 233.1875 211.167969 233.167969 C 211.765625 233.148438 212.355469 233.09375 212.945312 233.003906 C 213.53125 232.917969 214.113281 232.792969 214.6875 232.636719 C 215.261719 232.480469 215.824219 232.292969 216.378906 232.070312 C 216.929688 231.847656 217.46875 231.59375 217.992188 231.3125 C 218.515625 231.027344 219.019531 230.714844 219.503906 230.371094 C 219.992188 230.027344 220.457031 229.65625 220.898438 229.261719 C 221.34375 228.863281 221.761719 228.441406 222.15625 227.996094 C 222.550781 227.550781 222.921875 227.085938 223.261719 226.597656 C 223.601562 226.109375 223.914062 225.601562 224.195312 225.078125 C 224.476562 224.554688 224.726562 224.015625 224.945312 223.460938 C 225.164062 222.910156 225.351562 222.34375 225.503906 221.769531 C 225.660156 221.195312 225.777344 220.613281 225.863281 220.023438 C 225.953125 219.4375 226.003906 218.84375 226.019531 218.25 C 226.039062 217.652344 226.019531 217.058594 225.96875 216.46875 C 225.917969 215.875 225.832031 215.285156 225.714844 214.703125 C 225.539062 213.847656 225.292969 213.015625 224.972656 212.203125 L 199.867188 206.84375 C 198.289062 208.398438 197.097656 210.207031 196.300781 212.273438 L 195.554688 214.210938 L 193.667969 213.335938 C 187.90625 210.660156 182.84375 207.011719 178.484375 202.390625 L 177.34375 202.347656 L 177.386719 201.191406 C 174.859375 198.34375 172.683594 195.246094 170.859375 191.902344 C 169.039062 188.554688 167.613281 185.050781 166.589844 181.382812 L 166.03125 179.378906 L 168.070312 178.960938 C 170.316406 178.496094 172.359375 177.574219 174.195312 176.195312 L 170.691406 149.621094 C 170.625 149.597656 170.558594 149.570312 170.496094 149.546875 C 169.121094 149.019531 167.699219 148.695312 166.230469 148.574219 C 165.796875 148.539062 165.367188 148.519531 164.9375 148.519531 Z M 164.9375 148.519531 " fill-opacity="1" fill-rule="nonzero"/></svg>