<svg xmlns="http://www.w3.org/2000/svg" xmlns:xlink="http://www.w3.org/1999/xlink" width="500" zoomAndPan="magnify" viewBox="0 0 375 374.999991" height="500" preserveAspectRatio="xMidYMid meet" version="1.0"><defs><clipPath id="3f7adc07a7"><path d="M 112.5 112.5 L 262.5 112.5 L 262.5 262.5 L 112.5 262.5 Z M 112.5 112.5 " clip-rule="nonzero"/></clipPath></defs><g clip-path="url(#3f7adc07a7)"><path fill="#ffffff" d="M 238.636719 262.5 L 136.363281 262.5 C 135.582031 262.5 134.800781 262.460938 134.023438 262.386719 C 133.246094 262.308594 132.476562 262.195312 131.707031 262.042969 C 130.941406 261.890625 130.183594 261.699219 129.4375 261.472656 C 128.6875 261.246094 127.953125 260.984375 127.230469 260.683594 C 126.507812 260.382812 125.804688 260.050781 125.113281 259.683594 C 124.425781 259.3125 123.753906 258.914062 123.105469 258.476562 C 122.457031 258.042969 121.828125 257.578125 121.226562 257.082031 C 120.621094 256.585938 120.042969 256.0625 119.488281 255.511719 C 118.9375 254.957031 118.414062 254.378906 117.917969 253.773438 C 117.421875 253.171875 116.957031 252.542969 116.523438 251.894531 C 116.085938 251.246094 115.6875 250.574219 115.316406 249.886719 C 114.949219 249.195312 114.617188 248.492188 114.316406 247.769531 C 114.015625 247.046875 113.753906 246.3125 113.527344 245.5625 C 113.300781 244.816406 113.109375 244.058594 112.957031 243.292969 C 112.804688 242.523438 112.691406 241.753906 112.613281 240.976562 C 112.539062 240.199219 112.5 239.417969 112.5 238.636719 L 112.5 136.363281 C 112.5 135.582031 112.539062 134.800781 112.613281 134.023438 C 112.691406 133.246094 112.804688 132.476562 112.957031 131.707031 C 113.109375 130.941406 113.300781 130.183594 113.527344 129.4375 C 113.753906 128.6875 114.015625 127.953125 114.316406 127.230469 C 114.617188 126.507812 114.949219 125.804688 115.316406 125.113281 C 115.6875 124.425781 116.085938 123.753906 116.523438 123.105469 C 116.957031 122.457031 117.421875 121.828125 117.917969 121.226562 C 118.414062 120.621094 118.9375 120.042969 119.488281 119.488281 C 120.042969 118.9375 120.621094 118.414062 121.226562 117.917969 C 121.828125 117.421875 122.457031 116.957031 123.105469 116.523438 C 123.753906 116.085938 124.425781 115.6875 125.113281 115.316406 C 125.804688 114.949219 126.507812 114.617188 127.230469 114.316406 C 127.953125 114.015625 128.6875 113.753906 129.4375 113.527344 C 130.183594 113.300781 130.941406 113.109375 131.707031 112.957031 C 132.476562 112.804688 133.246094 112.691406 134.023438 112.613281 C 134.800781 112.539062 135.582031 112.5 136.363281 112.5 L 238.636719 112.5 C 239.417969 112.5 240.199219 112.539062 240.976562 112.613281 C 241.753906 112.691406 242.523438 112.804688 243.292969 112.957031 C 244.058594 113.109375 244.816406 113.300781 245.5625 113.527344 C 246.3125 113.753906 247.046875 114.015625 247.769531 114.316406 C 248.492188 114.617188 249.195312 114.949219 249.886719 115.316406 C 250.574219 115.6875 251.246094 116.085938 251.894531 116.523438 C 252.542969 116.957031 253.171875 117.421875 253.773438 117.917969 C 254.378906 118.414062 254.957031 118.9375 255.511719 119.488281 C 256.0625 120.042969 256.585938 120.621094 257.082031 121.226562 C 257.578125 121.828125 258.042969 122.457031 258.476562 123.105469 C 258.914062 123.753906 259.3125 124.425781 259.683594 125.113281 C 260.050781 125.804688 260.382812 126.507812 260.683594 127.230469 C 260.984375 127.953125 261.246094 128.6875 261.472656 129.4375 C 261.699219 130.183594 261.890625 130.941406 262.042969 131.707031 C 262.195312 132.476562 262.308594 133.246094 262.386719 134.023438 C 262.460938 134.800781 262.5 135.582031 262.5 136.363281 L 262.5 238.636719 C 262.5 239.417969 262.460938 240.199219 262.386719 240.976562 C 262.308594 241.753906 262.195312 242.523438 262.042969 243.292969 C 261.890625 244.058594 261.699219 244.816406 261.472656 245.5625 C 261.246094 246.3125 260.984375 247.046875 260.683594 247.769531 C 260.382812 248.492188 260.050781 249.195312 259.683594 249.886719 C 259.3125 250.574219 258.914062 251.246094 258.476562 251.894531 C 258.042969 252.542969 257.578125 253.171875 257.082031 253.773438 C 256.585938 254.378906 256.0625 254.957031 255.511719 255.511719 C 254.957031 256.0625 254.378906 256.585938 253.773438 257.082031 C 253.171875 257.578125 252.542969 258.042969 251.894531 258.476562 C 251.246094 258.914062 250.574219 259.3125 249.886719 259.683594 C 249.195312 260.050781 248.492188 260.382812 247.769531 260.683594 C 247.046875 260.984375 246.3125 261.246094 245.5625 261.472656 C 244.816406 261.699219 244.058594 261.890625 243.292969 262.042969 C 242.523438 262.195312 241.753906 262.308594 240.976562 262.386719 C 240.199219 262.460938 239.417969 262.5 238.636719 262.5 Z M 136.363281 119.316406 C 135.804688 119.316406 135.25 119.34375 134.691406 119.398438 C 134.136719 119.453125 133.585938 119.535156 133.039062 119.644531 C 132.492188 119.753906 131.949219 119.890625 131.414062 120.050781 C 130.882812 120.214844 130.355469 120.402344 129.839844 120.617188 C 129.324219 120.828125 128.820312 121.066406 128.328125 121.332031 C 127.835938 121.59375 127.359375 121.878906 126.894531 122.191406 C 126.429688 122.5 125.980469 122.832031 125.550781 123.1875 C 125.117188 123.542969 124.707031 123.914062 124.3125 124.3125 C 123.914062 124.707031 123.542969 125.117188 123.1875 125.550781 C 122.832031 125.980469 122.5 126.429688 122.191406 126.894531 C 121.878906 127.359375 121.59375 127.835938 121.332031 128.328125 C 121.066406 128.820312 120.828125 129.324219 120.617188 129.839844 C 120.402344 130.355469 120.214844 130.882812 120.050781 131.414062 C 119.890625 131.949219 119.753906 132.492188 119.644531 133.039062 C 119.535156 133.585938 119.453125 134.136719 119.398438 134.691406 C 119.34375 135.25 119.316406 135.804688 119.316406 136.363281 L 119.316406 238.636719 C 119.316406 239.195312 119.34375 239.75 119.398438 240.308594 C 119.453125 240.863281 119.535156 241.414062 119.644531 241.960938 C 119.753906 242.507812 119.890625 243.050781 120.050781 243.585938 C 120.214844 244.117188 120.402344 244.644531 120.617188 245.160156 C 120.828125 245.675781 121.066406 246.179688 121.332031 246.671875 C 121.59375 247.164062 121.878906 247.640625 122.191406 248.105469 C 122.5 248.570312 122.832031 249.019531 123.1875 249.449219 C 123.542969 249.882812 123.914062 250.292969 124.3125 250.6875 C 124.707031 251.085938 125.117188 251.457031 125.550781 251.8125 C 125.980469 252.167969 126.429688 252.5 126.894531 252.808594 C 127.359375 253.121094 127.835938 253.40625 128.328125 253.667969 C 128.820312 253.933594 129.324219 254.171875 129.839844 254.382812 C 130.355469 254.597656 130.882812 254.785156 131.414062 254.949219 C 131.949219 255.109375 132.492188 255.246094 133.039062 255.355469 C 133.585938 255.464844 134.136719 255.546875 134.691406 255.601562 C 135.25 255.65625 135.804688 255.683594 136.363281 255.683594 L 238.636719 255.683594 C 239.195312 255.683594 239.75 255.65625 240.308594 255.601562 C 240.863281 255.546875 241.414062 255.464844 241.960938 255.355469 C 242.507812 255.246094 243.050781 255.109375 243.585938 254.949219 C 244.117188 254.785156 244.644531 254.597656 245.160156 254.382812 C 245.675781 254.171875 246.179688 253.933594 246.671875 253.667969 C 247.164062 253.40625 247.640625 253.121094 248.105469 252.808594 C 248.570312 252.5 249.019531 252.167969 249.449219 251.8125 C 249.882812 251.457031 250.292969 251.085938 250.6875 250.6875 C 251.085938 250.292969 251.457031 249.882812 251.8125 249.449219 C 252.167969 249.019531 252.5 248.570312 252.808594 248.105469 C 253.121094 247.640625 253.40625 247.164062 253.667969 246.671875 C 253.933594 246.179688 254.171875 245.675781 254.382812 245.160156 C 254.597656 244.644531 254.785156 244.117188 254.949219 243.585938 C 255.109375 243.050781 255.246094 242.507812 255.355469 241.960938 C 255.464844 241.414062 255.546875 240.863281 255.601562 240.308594 C 255.65625 239.75 255.683594 239.195312 255.683594 238.636719 L 255.683594 136.363281 C 255.683594 135.804688 255.65625 135.25 255.601562 134.691406 C 255.546875 134.136719 255.464844 133.585938 255.355469 133.039062 C 255.246094 132.492188 255.109375 131.949219 254.949219 131.414062 C 254.785156 130.882812 254.597656 130.355469 254.382812 129.839844 C 254.171875 129.324219 253.933594 128.820312 253.667969 128.328125 C 253.40625 127.835938 253.121094 127.359375 252.808594 126.894531 C 252.5 126.429688 252.167969 125.980469 251.8125 125.550781 C 251.457031 125.117188 251.085938 124.707031 250.6875 124.3125 C 250.292969 123.914062 249.882812 123.542969 249.449219 123.1875 C 249.019531 122.832031 248.570312 122.5 248.105469 122.191406 C 247.640625 121.878906 247.164062 121.59375 246.671875 121.332031 C 246.179688 121.066406 245.675781 120.828125 245.160156 120.617188 C 244.644531 120.402344 244.117188 120.214844 243.585938 120.050781 C 243.050781 119.890625 242.507812 119.753906 241.960938 119.644531 C 241.414062 119.535156 240.863281 119.453125 240.308594 119.398438 C 239.75 119.34375 239.195312 119.316406 238.636719 119.316406 Z M 136.363281 119.316406 " fill-opacity="1" fill-rule="nonzero"/></g><path fill="#ffffff" d="M 187.5 223.433594 C 186.324219 223.433594 185.148438 223.375 183.976562 223.257812 C 182.808594 223.144531 181.644531 222.972656 180.488281 222.742188 C 179.335938 222.511719 178.195312 222.226562 177.070312 221.882812 C 175.945312 221.542969 174.835938 221.148438 173.75 220.695312 C 172.664062 220.246094 171.601562 219.742188 170.5625 219.1875 C 169.523438 218.632812 168.515625 218.03125 167.539062 217.375 C 166.558594 216.722656 165.613281 216.023438 164.703125 215.277344 C 163.796875 214.527344 162.925781 213.738281 162.09375 212.90625 C 161.261719 212.074219 160.472656 211.203125 159.722656 210.292969 C 158.976562 209.386719 158.277344 208.441406 157.625 207.460938 C 156.96875 206.484375 156.367188 205.476562 155.8125 204.4375 C 155.257812 203.398438 154.753906 202.335938 154.304688 201.25 C 153.851562 200.164062 153.457031 199.054688 153.117188 197.929688 C 152.773438 196.804688 152.488281 195.664062 152.257812 194.511719 C 152.027344 193.355469 151.855469 192.191406 151.742188 191.023438 C 151.625 189.851562 151.566406 188.675781 151.566406 187.5 C 151.566406 186.324219 151.625 185.148438 151.742188 183.976562 C 151.855469 182.808594 152.027344 181.644531 152.257812 180.488281 C 152.488281 179.335938 152.773438 178.195312 153.117188 177.070312 C 153.457031 175.945312 153.851562 174.835938 154.304688 173.75 C 154.753906 172.664062 155.257812 171.601562 155.8125 170.5625 C 156.367188 169.523438 156.96875 168.515625 157.625 167.539062 C 158.277344 166.558594 158.976562 165.613281 159.722656 164.703125 C 160.472656 163.796875 161.261719 162.925781 162.09375 162.09375 C 162.925781 161.261719 163.796875 160.472656 164.703125 159.722656 C 165.613281 158.976562 166.558594 158.277344 167.539062 157.625 C 168.515625 156.96875 169.523438 156.367188 170.5625 155.8125 C 171.601562 155.257812 172.664062 154.753906 173.75 154.304688 C 174.835938 153.851562 175.945312 153.457031 177.070312 153.117188 C 178.195312 152.773438 179.335938 152.488281 180.488281 152.257812 C 181.644531 152.027344 182.808594 151.855469 183.976562 151.742188 C 185.148438 151.625 186.324219 151.566406 187.5 151.566406 C 188.675781 151.566406 189.851562 151.625 191.023438 151.742188 C 192.191406 151.855469 193.355469 152.027344 194.511719 152.257812 C 195.664062 152.488281 196.804688 152.773438 197.929688 153.117188 C 199.054688 153.457031 200.164062 153.851562 201.25 154.304688 C 202.335938 154.753906 203.398438 155.257812 204.4375 155.8125 C 205.476562 156.367188 206.484375 156.96875 207.460938 157.625 C 208.441406 158.277344 209.386719 158.976562 210.292969 159.722656 C 211.203125 160.472656 212.074219 161.261719 212.90625 162.09375 C 213.738281 162.925781 214.527344 163.796875 215.277344 164.703125 C 216.023438 165.613281 216.722656 166.558594 217.375 167.539062 C 218.03125 168.515625 218.632812 169.523438 219.1875 170.5625 C 219.742188 171.601562 220.246094 172.664062 220.695312 173.75 C 221.148438 174.835938 221.542969 175.945312 221.882812 177.070312 C 222.226562 178.195312 222.511719 179.335938 222.742188 180.488281 C 222.972656 181.644531 223.144531 182.808594 223.257812 183.976562 C 223.375 185.148438 223.433594 186.324219 223.433594 187.5 C 223.429688 188.675781 223.371094 189.847656 223.253906 191.019531 C 223.136719 192.191406 222.960938 193.351562 222.730469 194.503906 C 222.5 195.660156 222.210938 196.796875 221.871094 197.921875 C 221.527344 199.046875 221.128906 200.152344 220.679688 201.238281 C 220.226562 202.328125 219.722656 203.386719 219.167969 204.425781 C 218.613281 205.460938 218.007812 206.46875 217.355469 207.445312 C 216.703125 208.425781 216 209.367188 215.253906 210.277344 C 214.507812 211.1875 213.71875 212.054688 212.886719 212.886719 C 212.054688 213.71875 211.1875 214.507812 210.277344 215.253906 C 209.367188 216 208.425781 216.703125 207.445312 217.355469 C 206.46875 218.007812 205.460938 218.613281 204.425781 219.167969 C 203.386719 219.722656 202.328125 220.226562 201.238281 220.679688 C 200.152344 221.128906 199.046875 221.527344 197.921875 221.871094 C 196.796875 222.210938 195.660156 222.5 194.503906 222.730469 C 193.351562 222.960938 192.191406 223.136719 191.019531 223.253906 C 189.847656 223.371094 188.675781 223.429688 187.5 223.433594 Z M 187.5 158.386719 C 186.546875 158.386719 185.59375 158.433594 184.644531 158.527344 C 183.699219 158.621094 182.753906 158.757812 181.820312 158.945312 C 180.886719 159.132812 179.960938 159.363281 179.046875 159.640625 C 178.136719 159.917969 177.238281 160.238281 176.359375 160.601562 C 175.476562 160.96875 174.617188 161.375 173.777344 161.824219 C 172.933594 162.273438 172.117188 162.761719 171.324219 163.292969 C 170.53125 163.824219 169.765625 164.390625 169.03125 164.996094 C 168.292969 165.601562 167.585938 166.238281 166.914062 166.914062 C 166.238281 167.585938 165.601562 168.292969 164.996094 169.03125 C 164.390625 169.765625 163.824219 170.53125 163.292969 171.324219 C 162.761719 172.117188 162.273438 172.933594 161.824219 173.777344 C 161.375 174.617188 160.96875 175.476562 160.601562 176.359375 C 160.238281 177.238281 159.917969 178.136719 159.640625 179.046875 C 159.363281 179.960938 159.132812 180.886719 158.945312 181.820312 C 158.757812 182.753906 158.621094 183.699219 158.527344 184.644531 C 158.433594 185.59375 158.386719 186.546875 158.386719 187.5 C 158.386719 188.453125 158.433594 189.40625 158.527344 190.355469 C 158.621094 191.300781 158.757812 192.246094 158.945312 193.179688 C 159.132812 194.113281 159.363281 195.039062 159.640625 195.953125 C 159.917969 196.863281 160.238281 197.761719 160.601562 198.640625 C 160.96875 199.523438 161.375 200.382812 161.824219 201.222656 C 162.273438 202.066406 162.761719 202.882812 163.292969 203.675781 C 163.824219 204.46875 164.390625 205.230469 164.996094 205.96875 C 165.601562 206.707031 166.238281 207.414062 166.914062 208.085938 C 167.585938 208.761719 168.292969 209.398438 169.03125 210.003906 C 169.765625 210.609375 170.53125 211.175781 171.324219 211.707031 C 172.117188 212.238281 172.933594 212.726562 173.777344 213.175781 C 174.617188 213.625 175.476562 214.03125 176.359375 214.398438 C 177.238281 214.761719 178.136719 215.082031 179.046875 215.359375 C 179.960938 215.636719 180.886719 215.867188 181.820312 216.054688 C 182.753906 216.238281 183.699219 216.378906 184.644531 216.472656 C 185.59375 216.566406 186.546875 216.613281 187.5 216.613281 C 188.453125 216.613281 189.40625 216.566406 190.355469 216.472656 C 191.300781 216.378906 192.246094 216.238281 193.179688 216.054688 C 194.113281 215.867188 195.039062 215.636719 195.953125 215.359375 C 196.863281 215.082031 197.761719 214.761719 198.640625 214.398438 C 199.523438 214.03125 200.382812 213.625 201.222656 213.175781 C 202.066406 212.726562 202.882812 212.238281 203.675781 211.707031 C 204.46875 211.175781 205.230469 210.609375 205.96875 210.003906 C 206.707031 209.398438 207.414062 208.761719 208.085938 208.085938 C 208.761719 207.414062 209.398438 206.707031 210.003906 205.96875 C 210.609375 205.230469 211.175781 204.46875 211.707031 203.675781 C 212.238281 202.882812 212.726562 202.066406 213.175781 201.222656 C 213.625 200.382812 214.03125 199.523438 214.398438 198.640625 C 214.761719 197.761719 215.082031 196.863281 215.359375 195.953125 C 215.636719 195.039062 215.867188 194.113281 216.054688 193.179688 C 216.242188 192.246094 216.378906 191.300781 216.472656 190.355469 C 216.566406 189.40625 216.613281 188.453125 216.613281 187.5 C 216.613281 186.546875 216.5625 185.597656 216.46875 184.648438 C 216.371094 183.699219 216.230469 182.757812 216.042969 181.824219 C 215.855469 180.890625 215.621094 179.96875 215.34375 179.054688 C 215.066406 178.144531 214.746094 177.25 214.378906 176.371094 C 214.011719 175.488281 213.605469 174.628906 213.15625 173.789062 C 212.707031 172.949219 212.214844 172.132812 211.6875 171.339844 C 211.15625 170.550781 210.589844 169.785156 209.984375 169.046875 C 209.378906 168.3125 208.742188 167.605469 208.066406 166.933594 C 207.394531 166.257812 206.6875 165.621094 205.953125 165.015625 C 205.214844 164.410156 204.449219 163.84375 203.660156 163.3125 C 202.867188 162.785156 202.050781 162.292969 201.210938 161.84375 C 200.371094 161.394531 199.511719 160.984375 198.628906 160.621094 C 197.75 160.253906 196.855469 159.933594 195.945312 159.65625 C 195.03125 159.378906 194.109375 159.144531 193.175781 158.957031 C 192.242188 158.769531 191.300781 158.628906 190.351562 158.53125 C 189.402344 158.4375 188.453125 158.386719 187.5 158.386719 Z M 187.5 158.386719 " fill-opacity="1" fill-rule="nonzero"/><path fill="#ffffff" d="M 243.546875 137.453125 C 243.546875 137.902344 243.5 138.34375 243.414062 138.785156 C 243.328125 139.222656 243.199219 139.648438 243.027344 140.0625 C 242.855469 140.476562 242.644531 140.871094 242.394531 141.242188 C 242.148438 141.613281 241.863281 141.960938 241.546875 142.277344 C 241.230469 142.59375 240.886719 142.875 240.515625 143.125 C 240.144531 143.371094 239.75 143.582031 239.335938 143.753906 C 238.921875 143.925781 238.496094 144.054688 238.058594 144.140625 C 237.617188 144.230469 237.175781 144.273438 236.726562 144.273438 C 236.28125 144.273438 235.835938 144.230469 235.398438 144.140625 C 234.957031 144.054688 234.53125 143.925781 234.117188 143.753906 C 233.703125 143.582031 233.3125 143.371094 232.9375 143.125 C 232.566406 142.875 232.222656 142.59375 231.90625 142.277344 C 231.589844 141.960938 231.308594 141.613281 231.058594 141.242188 C 230.808594 140.871094 230.597656 140.476562 230.429688 140.0625 C 230.257812 139.648438 230.128906 139.222656 230.039062 138.785156 C 229.953125 138.34375 229.910156 137.902344 229.910156 137.453125 C 229.910156 137.007812 229.953125 136.5625 230.039062 136.125 C 230.128906 135.683594 230.257812 135.257812 230.429688 134.84375 C 230.597656 134.433594 230.808594 134.039062 231.058594 133.667969 C 231.308594 133.292969 231.589844 132.949219 231.90625 132.632812 C 232.222656 132.316406 232.566406 132.035156 232.9375 131.785156 C 233.3125 131.535156 233.703125 131.328125 234.117188 131.15625 C 234.53125 130.984375 234.957031 130.855469 235.398438 130.765625 C 235.835938 130.679688 236.28125 130.636719 236.726562 130.636719 C 237.175781 130.636719 237.617188 130.679688 238.058594 130.765625 C 238.496094 130.855469 238.921875 130.984375 239.335938 131.15625 C 239.75 131.328125 240.144531 131.535156 240.515625 131.785156 C 240.886719 132.035156 241.230469 132.316406 241.546875 132.632812 C 241.863281 132.949219 242.148438 133.292969 242.394531 133.667969 C 242.644531 134.039062 242.855469 134.433594 243.027344 134.84375 C 243.199219 135.257812 243.328125 135.683594 243.414062 136.125 C 243.5 136.5625 243.546875 137.007812 243.546875 137.453125 Z M 243.546875 137.453125 " fill-opacity="1" fill-rule="nonzero"/></svg>